<svg width="39" height="39" viewBox="0 0 39 39" fill="none" xmlns="http://www.w3.org/2000/svg">
<circle opacity="0.3" cx="19.5" cy="19.5" r="19" stroke="black"/>
<path d="M9.36621 36.1607C11.6823 37.5695 14.27 38.4818 16.9652 38.8351C19.9914 39.2318 23.0685 38.9126 25.9489 37.9031C28.8293 36.8937 31.4325 35.2222 33.549 33.0232C35.6656 30.8242 37.2365 28.1591 38.1352 25.2423C39.0339 22.3255 39.2353 19.2384 38.7234 16.2295C38.2114 13.2206 37.0003 10.3739 35.1875 7.9185C33.3747 5.46305 31.0108 3.46741 28.2861 2.09217C25.8594 0.8674 23.207 0.165149 20.4997 0.0261378L20.4997 1.02753C23.0503 1.1656 25.5486 1.83068 27.8355 2.9849C30.4205 4.28962 32.6631 6.18291 34.383 8.51244C36.1028 10.842 37.2518 13.5427 37.7375 16.3973C38.2233 19.2519 38.0321 22.1806 37.1795 24.9478C36.3269 27.7151 34.8366 30.2435 32.8286 32.3298C30.8205 34.416 28.3508 36.0017 25.6182 36.9594C22.8855 37.9171 19.9662 38.2199 17.0951 37.8436C14.5552 37.5106 12.1159 36.6543 9.92979 35.333L9.36621 36.1607Z" fill="black"/>
</svg>
