<svg width="290" height="92" viewBox="0 0 290 92" fill="none" xmlns="http://www.w3.org/2000/svg">
<path d="M5.33115 89.4646C4.28847 89.4646 3.3579 89.2331 2.53945 88.7702C1.7322 88.2965 1.10435 87.6613 0.655883 86.8646C0.218628 86.0571 0 85.1797 0 84.2323C0 83.1234 0.291504 82.176 0.874511 81.3901C1.45752 80.5934 2.20309 79.9959 3.11124 79.5975C4.0306 79.1992 4.96677 79 5.91977 79C6.98488 79 7.92105 79.2422 8.72829 79.7267C9.53553 80.2004 10.1522 80.8302 10.5782 81.6161C11.0155 82.4021 11.2341 83.2364 11.2341 84.1193C11.2341 85.099 10.965 85.9979 10.4269 86.8161C9.8887 87.6344 9.16555 88.2803 8.2574 88.754C7.36047 89.2277 6.38505 89.4646 5.33115 89.4646ZM5.88613 89.0609C6.51399 89.0609 7.07457 88.8886 7.56788 88.5441C8.07241 88.1888 8.46482 87.6774 8.74511 87.0099C9.0254 86.3317 9.16555 85.5242 9.16555 84.5876C9.16555 83.5971 9.00858 82.7143 8.69466 81.9391C8.38073 81.1532 7.92666 80.5395 7.33244 80.0981C6.73822 79.6567 6.0431 79.436 5.24707 79.436C4.2268 79.436 3.44199 79.8075 2.89261 80.5503C2.34324 81.2824 2.06856 82.3106 2.06856 83.6348C2.06856 84.6791 2.23112 85.6157 2.55626 86.4447C2.89261 87.2629 3.34669 87.9035 3.91848 88.3665C4.50149 88.8294 5.15737 89.0609 5.88613 89.0609Z" fill="#7E7753"/>
<path d="M32.1656 89.077C32.1992 89.077 32.2161 89.1093 32.2161 89.1739C32.2161 89.2385 32.1992 89.2708 32.1656 89.2708H29.5757C29.43 89.2708 29.2954 89.2277 29.1721 89.1416C29.06 89.0555 28.8582 88.8348 28.5667 88.4795C28.2752 88.1135 27.7987 87.4729 27.1372 86.5578L26.6831 85.9441C26.2907 85.395 25.9992 85.0128 25.8086 84.7975C25.618 84.5714 25.4162 84.4153 25.2032 84.3292C25.0013 84.2323 24.7323 84.1839 24.3959 84.1839V87.9627C24.3959 88.2857 24.4239 88.5279 24.48 88.6894C24.5473 88.8402 24.6706 88.9424 24.85 88.9963C25.0294 89.0501 25.3097 89.077 25.6909 89.077C25.7245 89.077 25.7413 89.1093 25.7413 89.1739C25.7413 89.2385 25.7245 89.2708 25.6909 89.2708C25.2985 89.2708 24.9845 89.2654 24.7491 89.2547L23.3532 89.2385L22.1255 89.2547C21.9013 89.2654 21.5986 89.2708 21.2174 89.2708C21.1838 89.2708 21.167 89.2385 21.167 89.1739C21.167 89.1093 21.1838 89.077 21.2174 89.077C21.5986 89.077 21.8789 89.0501 22.0583 88.9963C22.2377 88.9424 22.361 88.8402 22.4283 88.6894C22.4955 88.5279 22.5292 88.2857 22.5292 87.9627V80.4857C22.5292 80.1627 22.4955 79.9259 22.4283 79.7752C22.361 79.6244 22.2377 79.5222 22.0583 79.4683C21.8901 79.4037 21.6154 79.3714 21.2342 79.3714C21.2006 79.3714 21.1838 79.3391 21.1838 79.2745C21.1838 79.2099 21.2006 79.1776 21.2342 79.1776L22.1255 79.1938C22.6413 79.2153 23.0505 79.2261 23.3532 79.2261C23.7344 79.2261 24.2053 79.2153 24.7659 79.1938L25.6909 79.1776C25.7245 79.1776 25.7413 79.2099 25.7413 79.2745C25.7413 79.3391 25.7245 79.3714 25.6909 79.3714C25.3209 79.3714 25.0462 79.4037 24.8668 79.4683C24.6874 79.5329 24.5641 79.646 24.4968 79.8075C24.4295 79.9582 24.3959 80.195 24.3959 80.518V83.9093C24.6986 83.8986 25.0798 83.8932 25.5395 83.8932L27.3053 81.5677C27.765 80.954 27.9949 80.4426 27.9949 80.0335C27.9949 79.829 27.9332 79.6675 27.8099 79.5491C27.6865 79.4306 27.5184 79.3714 27.3053 79.3714C27.2829 79.3714 27.2717 79.3391 27.2717 79.2745C27.2717 79.2099 27.2829 79.1776 27.3053 79.1776L28.079 79.1938C28.5723 79.2153 29.0095 79.2261 29.3907 79.2261C29.828 79.2261 30.282 79.2153 30.7529 79.1938L31.4761 79.1776C31.5097 79.1776 31.5265 79.2099 31.5265 79.2745C31.5265 79.3391 31.5097 79.3714 31.4761 79.3714C30.9828 79.3714 30.4278 79.5437 29.8112 79.8882C29.1945 80.2327 28.6732 80.6634 28.2471 81.1801L25.9599 83.9093C26.3972 83.9308 26.756 84.0116 27.0363 84.1516C27.3166 84.2807 27.5912 84.4907 27.8603 84.7814C28.1406 85.072 28.533 85.5565 29.0375 86.2348L29.3403 86.6385C29.8112 87.2629 30.1755 87.7313 30.4334 88.0435C30.7025 88.3557 30.9772 88.6033 31.2575 88.7863C31.5378 88.9694 31.8405 89.0663 32.1656 89.077Z" fill="#7E7753"/>
<path d="M46.3232 89.4646C45.2805 89.4646 44.3499 89.2331 43.5315 88.7702C42.7242 88.2965 42.0964 87.6613 41.6479 86.8646C41.2107 86.0571 40.992 85.1797 40.992 84.2323C40.992 83.1234 41.2836 82.176 41.8666 81.3901C42.4496 80.5934 43.1951 79.9959 44.1033 79.5975C45.0226 79.1992 45.9588 79 46.9118 79C47.9769 79 48.9131 79.2422 49.7203 79.7267C50.5276 80.2004 51.1442 80.8302 51.5703 81.6161C52.0075 82.4021 52.2261 83.2364 52.2261 84.1193C52.2261 85.099 51.9571 85.9979 51.4189 86.8161C50.8807 87.6344 50.1576 88.2803 49.2494 88.754C48.3525 89.2277 47.3771 89.4646 46.3232 89.4646ZM46.8782 89.0609C47.506 89.0609 48.0666 88.8886 48.5599 88.5441C49.0645 88.1888 49.4569 87.6774 49.7372 87.0099C50.0174 86.3317 50.1576 85.5242 50.1576 84.5876C50.1576 83.5971 50.0006 82.7143 49.6867 81.9391C49.3728 81.1532 48.9187 80.5395 48.3245 80.0981C47.7303 79.6567 47.0351 79.436 46.2391 79.436C45.2188 79.436 44.434 79.8075 43.8847 80.5503C43.3353 81.2824 43.0606 82.3106 43.0606 83.6348C43.0606 84.6791 43.2232 85.6157 43.5483 86.4447C43.8847 87.2629 44.3387 87.9035 44.9105 88.3665C45.4935 88.8294 46.1494 89.0609 46.8782 89.0609Z" fill="#7E7753"/>
<path d="M74.0994 89.077C74.1331 89.077 74.1499 89.1093 74.1499 89.1739C74.1499 89.2385 74.1331 89.2708 74.0994 89.2708C73.707 89.2708 73.3931 89.2654 73.1577 89.2547L71.8627 89.2385L70.3491 89.2547C70.1473 89.2654 69.8726 89.2708 69.5251 89.2708C69.4914 89.2708 69.4746 89.2385 69.4746 89.1739C69.4746 89.1093 69.4914 89.077 69.5251 89.077C69.9399 89.077 70.2426 89.0501 70.4332 88.9963C70.6238 88.9424 70.7528 88.8402 70.82 88.6894C70.8873 88.5387 70.9209 88.2965 70.9209 87.9627V84.2484H65.4889V87.9627C65.4889 88.2857 65.5225 88.5279 65.5898 88.6894C65.657 88.8402 65.786 88.9424 65.9766 88.9963C66.1672 89.0501 66.4699 89.077 66.8847 89.077C66.9071 89.077 66.9184 89.1093 66.9184 89.1739C66.9184 89.2385 66.9071 89.2708 66.8847 89.2708C66.4923 89.2708 66.1784 89.2654 65.9429 89.2547L64.4798 89.2385L63.2185 89.2547C62.9943 89.2654 62.6859 89.2708 62.2935 89.2708C62.2711 89.2708 62.2599 89.2385 62.2599 89.1739C62.2599 89.1093 62.2711 89.077 62.2935 89.077C62.6859 89.077 62.9718 89.0501 63.1512 88.9963C63.3306 88.9424 63.4539 88.8402 63.5212 88.6894C63.5885 88.5279 63.6221 88.2857 63.6221 87.9627V80.4857C63.6221 80.1627 63.5885 79.9259 63.5212 79.7752C63.4539 79.6244 63.3306 79.5222 63.1512 79.4683C62.9831 79.4037 62.7084 79.3714 62.3272 79.3714C62.2935 79.3714 62.2767 79.3391 62.2767 79.2745C62.2767 79.2099 62.2935 79.1776 62.3272 79.1776L63.2353 79.1938C63.7511 79.2153 64.1659 79.2261 64.4798 79.2261C64.9059 79.2261 65.3992 79.2153 65.9598 79.1938L66.8847 79.1776C66.9071 79.1776 66.9184 79.2099 66.9184 79.2745C66.9184 79.3391 66.9071 79.3714 66.8847 79.3714C66.4811 79.3714 66.184 79.4037 65.9934 79.4683C65.8028 79.5329 65.6683 79.646 65.5898 79.8075C65.5225 79.9582 65.4889 80.195 65.4889 80.518V83.7963H70.9209V80.518C70.9209 80.195 70.8873 79.9582 70.82 79.8075C70.7528 79.646 70.6238 79.5329 70.4332 79.4683C70.2426 79.4037 69.9399 79.3714 69.5251 79.3714C69.4914 79.3714 69.4746 79.3391 69.4746 79.2745C69.4746 79.2099 69.4914 79.1776 69.5251 79.1776L70.3491 79.1938C70.9097 79.2153 71.4142 79.2261 71.8627 79.2261C72.1654 79.2261 72.5971 79.2153 73.1577 79.1938L74.0994 79.1776C74.1331 79.1776 74.1499 79.2099 74.1499 79.2745C74.1499 79.3391 74.1331 79.3714 74.0994 79.3714C73.7182 79.3714 73.4323 79.4037 73.2417 79.4683C73.0624 79.5222 72.939 79.6244 72.8718 79.7752C72.8157 79.9259 72.7877 80.1627 72.7877 80.4857V87.9627C72.7877 88.2857 72.8157 88.5279 72.8718 88.6894C72.939 88.8402 73.0624 88.9424 73.2417 88.9963C73.4211 89.0501 73.707 89.077 74.0994 89.077Z" fill="#7E7753"/>
<path d="M95.6876 89.077C95.7212 89.077 95.7381 89.1093 95.7381 89.1739C95.7381 89.2385 95.7212 89.2708 95.6876 89.2708C95.2952 89.2708 94.9813 89.2654 94.7458 89.2547L93.4509 89.2385L91.9373 89.2547C91.7355 89.2654 91.4608 89.2708 91.1132 89.2708C91.0796 89.2708 91.0628 89.2385 91.0628 89.1739C91.0628 89.1093 91.0796 89.077 91.1132 89.077C91.5281 89.077 91.8308 89.0501 92.0214 88.9963C92.212 88.9424 92.3409 88.8402 92.4082 88.6894C92.4755 88.5387 92.5091 88.2965 92.5091 87.9627V84.2484H87.077V87.9627C87.077 88.2857 87.1107 88.5279 87.1779 88.6894C87.2452 88.8402 87.3742 88.9424 87.5648 88.9963C87.7553 89.0501 88.0581 89.077 88.4729 89.077C88.4953 89.077 88.5065 89.1093 88.5065 89.1739C88.5065 89.2385 88.4953 89.2708 88.4729 89.2708C88.0805 89.2708 87.7666 89.2654 87.5311 89.2547L86.068 89.2385L84.8067 89.2547C84.5824 89.2654 84.2741 89.2708 83.8817 89.2708C83.8593 89.2708 83.8481 89.2385 83.8481 89.1739C83.8481 89.1093 83.8593 89.077 83.8817 89.077C84.2741 89.077 84.56 89.0501 84.7394 88.9963C84.9188 88.9424 85.0421 88.8402 85.1094 88.6894C85.1767 88.5279 85.2103 88.2857 85.2103 87.9627V80.4857C85.2103 80.1627 85.1767 79.9259 85.1094 79.7752C85.0421 79.6244 84.9188 79.5222 84.7394 79.4683C84.5712 79.4037 84.2965 79.3714 83.9154 79.3714C83.8817 79.3714 83.8649 79.3391 83.8649 79.2745C83.8649 79.2099 83.8817 79.1776 83.9154 79.1776L84.8235 79.1938C85.3392 79.2153 85.7541 79.2261 86.068 79.2261C86.494 79.2261 86.9874 79.2153 87.5479 79.1938L88.4729 79.1776C88.4953 79.1776 88.5065 79.2099 88.5065 79.2745C88.5065 79.3391 88.4953 79.3714 88.4729 79.3714C88.0693 79.3714 87.7722 79.4037 87.5816 79.4683C87.391 79.5329 87.2564 79.646 87.1779 79.8075C87.1107 79.9582 87.077 80.195 87.077 80.518V83.7963H92.5091V80.518C92.5091 80.195 92.4755 79.9582 92.4082 79.8075C92.3409 79.646 92.212 79.5329 92.0214 79.4683C91.8308 79.4037 91.5281 79.3714 91.1132 79.3714C91.0796 79.3714 91.0628 79.3391 91.0628 79.2745C91.0628 79.2099 91.0796 79.1776 91.1132 79.1776L91.9373 79.1938C92.4979 79.2153 93.0024 79.2261 93.4509 79.2261C93.7536 79.2261 94.1852 79.2153 94.7458 79.1938L95.6876 79.1776C95.7212 79.1776 95.7381 79.2099 95.7381 79.2745C95.7381 79.3391 95.7212 79.3714 95.6876 79.3714C95.3064 79.3714 95.0205 79.4037 94.8299 79.4683C94.6505 79.5222 94.5272 79.6244 94.4599 79.7752C94.4039 79.9259 94.3758 80.1627 94.3758 80.4857V87.9627C94.3758 88.2857 94.4039 88.5279 94.4599 88.6894C94.5272 88.8402 94.6505 88.9424 94.8299 88.9963C95.0093 89.0501 95.2952 89.077 95.6876 89.077Z" fill="#7E7753"/>
<path d="M110.431 83.5702C111.619 83.5702 112.528 83.7963 113.155 84.2484C113.783 84.6899 114.097 85.3466 114.097 86.2186C114.097 86.8431 113.935 87.3921 113.61 87.8658C113.284 88.3288 112.83 88.6894 112.247 88.9478C111.676 89.2062 111.025 89.3354 110.297 89.3354C110.005 89.3354 109.663 89.3193 109.271 89.287C109.125 89.287 108.889 89.2816 108.564 89.2708C108.239 89.2493 107.953 89.2385 107.707 89.2385L106.63 89.2547C106.395 89.2654 106.07 89.2708 105.655 89.2708C105.621 89.2708 105.604 89.2385 105.604 89.1739C105.604 89.1093 105.621 89.077 105.655 89.077C106.036 89.0555 106.3 89.0286 106.445 88.9963C106.602 88.9532 106.709 88.8617 106.765 88.7217C106.832 88.571 106.866 88.318 106.866 87.9627V80.4857C106.866 80.1304 106.838 79.8828 106.782 79.7429C106.726 79.6029 106.619 79.5114 106.462 79.4683C106.316 79.4253 106.053 79.393 105.672 79.3714C105.649 79.3714 105.638 79.3391 105.638 79.2745C105.638 79.2099 105.649 79.1776 105.672 79.1776L106.513 79.1938C106.983 79.2153 107.41 79.2261 107.791 79.2261C108.161 79.2261 108.626 79.2153 109.187 79.1938L110.145 79.1776C110.168 79.1776 110.179 79.2099 110.179 79.2745C110.179 79.3391 110.168 79.3714 110.145 79.3714C109.708 79.393 109.405 79.4253 109.237 79.4683C109.069 79.5114 108.946 79.6083 108.867 79.759C108.789 79.9097 108.749 80.1627 108.749 80.518V83.6994C109.377 83.6132 109.938 83.5702 110.431 83.5702ZM119.126 89.077C119.159 89.077 119.176 89.1093 119.176 89.1739C119.176 89.2385 119.159 89.2708 119.126 89.2708C118.756 89.2708 118.464 89.2654 118.251 89.2547L116.973 89.2385L115.729 89.2547C115.504 89.2654 115.202 89.2708 114.82 89.2708C114.798 89.2708 114.787 89.2385 114.787 89.1739C114.787 89.1093 114.798 89.077 114.82 89.077C115.179 89.077 115.443 89.0501 115.611 88.9963C115.779 88.9424 115.891 88.8402 115.947 88.6894C116.014 88.5279 116.048 88.2857 116.048 87.9627V80.4857C116.048 80.1627 116.014 79.9259 115.947 79.7752C115.891 79.6244 115.779 79.5222 115.611 79.4683C115.443 79.4037 115.179 79.3714 114.82 79.3714C114.798 79.3714 114.787 79.3391 114.787 79.2745C114.787 79.2099 114.798 79.1776 114.82 79.1776L115.729 79.1938C116.244 79.2153 116.659 79.2261 116.973 79.2261C117.321 79.2261 117.752 79.2153 118.268 79.1938L119.126 79.1776C119.159 79.1776 119.176 79.2099 119.176 79.2745C119.176 79.3391 119.159 79.3714 119.126 79.3714C118.778 79.3714 118.52 79.4037 118.352 79.4683C118.184 79.5329 118.072 79.646 118.016 79.8075C117.96 79.9582 117.932 80.195 117.932 80.518V87.9627C117.932 88.2965 117.96 88.5387 118.016 88.6894C118.072 88.8402 118.178 88.9424 118.335 88.9963C118.503 89.0501 118.767 89.077 119.126 89.077ZM109.994 88.9317C110.767 88.9317 111.317 88.7379 111.642 88.3503C111.967 87.952 112.13 87.3329 112.13 86.4932C112.13 85.6319 111.956 85.0075 111.608 84.6199C111.272 84.2215 110.689 84.0224 109.859 84.0224C109.568 84.0224 109.198 84.0493 108.749 84.1031V87.9627C108.749 88.2857 108.828 88.5279 108.985 88.6894C109.153 88.8509 109.489 88.9317 109.994 88.9317Z" fill="#7E7753"/>
<path d="M136.932 86.7031C136.932 86.6816 136.954 86.6708 136.999 86.6708C137.032 86.6708 137.06 86.6816 137.083 86.7031C137.117 86.7139 137.133 86.7246 137.133 86.7354C137.021 87.5752 136.965 88.3395 136.965 89.0286C136.965 89.1147 136.948 89.1793 136.915 89.2224C136.881 89.2547 136.814 89.2708 136.713 89.2708H129.28C129.246 89.2708 129.229 89.2385 129.229 89.1739C129.229 89.1093 129.246 89.077 129.28 89.077C129.638 89.077 129.896 89.0501 130.053 88.9963C130.221 88.9424 130.333 88.8402 130.39 88.6894C130.446 88.5279 130.474 88.2857 130.474 87.9627V80.4857C130.474 80.1627 130.446 79.9259 130.39 79.7752C130.333 79.6244 130.221 79.5222 130.053 79.4683C129.885 79.4037 129.627 79.3714 129.28 79.3714C129.246 79.3714 129.229 79.3391 129.229 79.2745C129.229 79.2099 129.246 79.1776 129.28 79.1776H136.41C136.522 79.1776 136.578 79.2261 136.578 79.323L136.612 81.4708C136.612 81.4923 136.578 81.5085 136.511 81.5193C136.455 81.53 136.421 81.5193 136.41 81.487C136.231 80.8625 135.928 80.3996 135.502 80.0981C135.076 79.7967 134.515 79.646 133.82 79.646H133.316C132.979 79.646 132.733 79.7159 132.576 79.8559C132.419 79.9959 132.34 80.2112 132.34 80.5019V83.7963H133.736C134.386 83.7963 134.885 83.6886 135.233 83.4733C135.581 83.258 135.754 82.9565 135.754 82.5689C135.754 82.5366 135.782 82.5205 135.838 82.5205C135.906 82.5205 135.939 82.5366 135.939 82.5689L135.922 84.0224L135.939 84.7975C135.962 85.1636 135.973 85.4542 135.973 85.6696C135.973 85.6911 135.939 85.7019 135.872 85.7019C135.805 85.7019 135.771 85.6911 135.771 85.6696C135.771 85.2282 135.592 84.8836 135.233 84.636C134.885 84.3776 134.381 84.2484 133.719 84.2484H132.34V87.8981C132.34 88.2104 132.402 88.4418 132.525 88.5925C132.649 88.7433 132.845 88.8186 133.114 88.8186H133.669C134.543 88.8186 135.244 88.6464 135.771 88.3019C136.298 87.9573 136.685 87.4244 136.932 86.7031Z" fill="#7E7753"/>
<path d="M171.628 89.077C171.662 89.077 171.679 89.1093 171.679 89.1739C171.679 89.2385 171.662 89.2708 171.628 89.2708C171.236 89.2708 170.922 89.2654 170.687 89.2547L169.392 89.2385L167.878 89.2547C167.676 89.2654 167.401 89.2708 167.054 89.2708C167.02 89.2708 167.003 89.2385 167.003 89.1739C167.003 89.1093 167.02 89.077 167.054 89.077C167.469 89.077 167.771 89.0501 167.962 88.9963C168.153 88.9424 168.282 88.8402 168.349 88.6894C168.416 88.5387 168.45 88.2965 168.45 87.9627V81.3578L161.723 89.4484C161.689 89.4807 161.605 89.4969 161.471 89.4969C161.257 89.4969 161.151 89.4592 161.151 89.3839V80.4857C161.151 80.1627 161.117 79.9259 161.05 79.7752C160.983 79.6244 160.859 79.5222 160.68 79.4683C160.501 79.4037 160.22 79.3714 159.839 79.3714C159.806 79.3714 159.789 79.3391 159.789 79.2745C159.789 79.2099 159.806 79.1776 159.839 79.1776L160.781 79.1938C161.342 79.2153 161.773 79.2261 162.076 79.2261C162.524 79.2261 163.029 79.2153 163.59 79.1938L164.414 79.1776C164.447 79.1776 164.464 79.2099 164.464 79.2745C164.464 79.3391 164.447 79.3714 164.414 79.3714C163.999 79.3714 163.696 79.4037 163.505 79.4683C163.315 79.5222 163.186 79.6244 163.119 79.7752C163.051 79.9259 163.018 80.1627 163.018 80.4857V87.1553L169.745 79.0646C169.778 79.0323 169.862 79.0161 169.997 79.0161C170.075 79.0161 170.148 79.0269 170.216 79.0484C170.283 79.07 170.317 79.0969 170.317 79.1292V87.9627C170.317 88.2857 170.35 88.5279 170.417 88.6894C170.485 88.8402 170.608 88.9424 170.787 88.9963C170.967 89.0501 171.247 89.077 171.628 89.077Z" fill="#7E7753"/>
<path d="M185.985 83.8447C186.926 83.9093 187.689 84.1731 188.272 84.636C188.855 85.0882 189.146 85.6749 189.146 86.3963C189.146 86.9776 188.95 87.5052 188.558 87.9789C188.165 88.4418 187.638 88.8079 186.977 89.077C186.315 89.3354 185.592 89.4646 184.807 89.4646C184.303 89.4646 183.821 89.4108 183.361 89.3031C182.901 89.1954 182.548 89.0447 182.302 88.8509C182.201 88.7971 182.139 88.754 182.117 88.7217C182.094 88.6787 182.077 88.5979 182.066 88.4795L181.864 86.2994C181.864 86.2778 181.892 86.2617 181.948 86.2509C182.016 86.2402 182.055 86.2509 182.066 86.2832C182.156 86.8323 182.352 87.3329 182.655 87.7851C182.969 88.2265 183.35 88.5764 183.798 88.8348C184.247 89.0824 184.718 89.2062 185.211 89.2062C185.805 89.2062 186.254 88.964 186.556 88.4795C186.87 87.9843 187.027 87.3814 187.027 86.6708C187.027 85.7988 186.786 85.142 186.304 84.7006C185.833 84.2484 185.16 84.0224 184.286 84.0224C184.241 84.0224 184.219 83.9901 184.219 83.9255C184.219 83.8609 184.241 83.8286 184.286 83.8286C185.093 83.8286 185.693 83.624 186.085 83.2149C186.489 82.8058 186.691 82.2298 186.691 81.487C186.691 80.7441 186.556 80.1789 186.287 79.7913C186.029 79.4037 185.643 79.2099 185.127 79.2099C184.746 79.2099 184.364 79.3391 183.983 79.5975C183.602 79.8451 183.266 80.1896 182.974 80.6311C182.683 81.0725 182.464 81.5677 182.318 82.1168C182.307 82.1491 182.273 82.1598 182.217 82.1491C182.161 82.1383 182.133 82.1222 182.133 82.1006L182.369 79.8075C182.391 79.6783 182.414 79.5921 182.436 79.5491C182.458 79.506 182.52 79.4683 182.621 79.436C183.484 79.1453 184.381 79 185.312 79C186.052 79 186.674 79.1023 187.179 79.3068C187.683 79.5006 188.059 79.7644 188.305 80.0981C188.563 80.4211 188.692 80.7764 188.692 81.164C188.692 81.7776 188.417 82.3321 187.868 82.8273C187.319 83.3226 186.691 83.6617 185.985 83.8447Z" fill="#7E7753"/>
<path d="M210.386 88.8348C210.487 88.8348 210.543 88.8455 210.554 88.8671C210.577 88.8778 210.588 88.9317 210.588 89.0286C210.588 89.0716 210.577 89.2224 210.554 89.4807C210.465 90.2021 210.42 91.0149 210.42 91.9193C210.42 91.9731 210.386 92 210.319 92C210.263 92 210.235 91.9731 210.235 91.9193C210.235 91.058 209.91 90.4012 209.259 89.9491C208.62 89.4969 207.695 89.2708 206.485 89.2708H202.751C201.686 89.2708 200.868 89.4969 200.296 89.9491C199.735 90.4012 199.455 91.058 199.455 91.9193C199.455 91.9731 199.421 92 199.354 92C199.287 92 199.253 91.9731 199.253 91.9193C199.253 91.0149 199.214 90.2505 199.135 89.6261C199.102 89.4215 199.085 89.2224 199.085 89.0286C199.085 88.9424 199.09 88.8886 199.102 88.8671C199.124 88.8455 199.175 88.8348 199.253 88.8348H200.397L204.601 79.113C204.623 79.0807 204.68 79.0646 204.769 79.0646C204.859 79.0646 204.909 79.0807 204.921 79.113L209.562 88.8348H210.386ZM200.935 88.8348H207.477L204.029 81.6161L200.935 88.8348Z" fill="#7E7753"/>
<path d="M227.956 86.7031C227.956 86.6816 227.979 86.6708 228.024 86.6708C228.057 86.6708 228.085 86.6816 228.108 86.7031C228.141 86.7139 228.158 86.7246 228.158 86.7354C228.046 87.5752 227.99 88.3395 227.99 89.0286C227.99 89.1147 227.973 89.1793 227.94 89.2224C227.906 89.2547 227.839 89.2708 227.738 89.2708H220.304C220.271 89.2708 220.254 89.2385 220.254 89.1739C220.254 89.1093 220.271 89.077 220.304 89.077C220.663 89.077 220.921 89.0501 221.078 88.9963C221.246 88.9424 221.358 88.8402 221.414 88.6894C221.47 88.5279 221.498 88.2857 221.498 87.9627V80.4857C221.498 80.1627 221.47 79.9259 221.414 79.7752C221.358 79.6244 221.246 79.5222 221.078 79.4683C220.91 79.4037 220.652 79.3714 220.304 79.3714C220.271 79.3714 220.254 79.3391 220.254 79.2745C220.254 79.2099 220.271 79.1776 220.304 79.1776H227.435C227.547 79.1776 227.603 79.2261 227.603 79.323L227.637 81.4708C227.637 81.4923 227.603 81.5085 227.536 81.5193C227.48 81.53 227.446 81.5193 227.435 81.487C227.256 80.8625 226.953 80.3996 226.527 80.0981C226.101 79.7967 225.54 79.646 224.845 79.646H224.341C224.004 79.646 223.758 79.7159 223.601 79.8559C223.444 79.9959 223.365 80.2112 223.365 80.5019V83.7963H224.761C225.411 83.7963 225.91 83.6886 226.258 83.4733C226.605 83.258 226.779 82.9565 226.779 82.5689C226.779 82.5366 226.807 82.5205 226.863 82.5205C226.93 82.5205 226.964 82.5366 226.964 82.5689L226.947 84.0224L226.964 84.7975C226.987 85.1636 226.998 85.4542 226.998 85.6696C226.998 85.6911 226.964 85.7019 226.897 85.7019C226.83 85.7019 226.796 85.6911 226.796 85.6696C226.796 85.2282 226.617 84.8836 226.258 84.636C225.91 84.3776 225.406 84.2484 224.744 84.2484H223.365V87.8981C223.365 88.2104 223.427 88.4418 223.55 88.5925C223.673 88.7433 223.87 88.8186 224.139 88.8186H224.694C225.568 88.8186 226.269 88.6464 226.796 88.3019C227.323 87.9573 227.71 87.4244 227.956 86.7031Z" fill="#7E7753"/>
<path d="M249.697 89.077C249.753 89.077 249.781 89.1093 249.781 89.1739C249.781 89.2385 249.753 89.2708 249.697 89.2708C249.473 89.2708 249.126 89.26 248.655 89.2385C248.161 89.217 247.808 89.2062 247.595 89.2062C247.315 89.2062 246.973 89.217 246.569 89.2385C246.188 89.26 245.885 89.2708 245.661 89.2708C245.616 89.2708 245.594 89.2385 245.594 89.1739C245.594 89.1093 245.616 89.077 245.661 89.077C245.953 89.077 246.16 89.0501 246.283 88.9963C246.418 88.9317 246.485 88.824 246.485 88.6733C246.485 88.4903 246.373 88.1834 246.149 87.7528L242.819 81.4385L240.212 86.9776C240.066 87.2899 239.994 87.5805 239.994 87.8497C239.994 88.2373 240.134 88.5387 240.414 88.754C240.706 88.9694 241.092 89.077 241.574 89.077C241.631 89.077 241.659 89.1093 241.659 89.1739C241.659 89.2385 241.631 89.2708 241.574 89.2708C241.373 89.2708 241.081 89.26 240.7 89.2385C240.274 89.217 239.904 89.2062 239.59 89.2062C239.287 89.2062 238.923 89.217 238.497 89.2385C238.116 89.26 237.807 89.2708 237.572 89.2708C237.527 89.2708 237.505 89.2385 237.505 89.1739C237.505 89.1093 237.527 89.077 237.572 89.077C237.886 89.077 238.149 89.0178 238.362 88.8994C238.575 88.7702 238.788 88.5495 239.001 88.2373C239.214 87.9143 239.467 87.4406 239.758 86.8161L243.408 79.113C243.43 79.0807 243.48 79.0646 243.559 79.0646C243.649 79.0646 243.699 79.0807 243.71 79.113L247.915 87.0584C248.307 87.8228 248.632 88.3503 248.89 88.641C249.148 88.9317 249.417 89.077 249.697 89.077Z" fill="#7E7753"/>
<path d="M270.75 89.077C270.783 89.077 270.8 89.1093 270.8 89.1739C270.8 89.2385 270.783 89.2708 270.75 89.2708C270.357 89.2708 270.044 89.2654 269.808 89.2547L268.513 89.2385L267 89.2547C266.798 89.2654 266.523 89.2708 266.175 89.2708C266.142 89.2708 266.125 89.2385 266.125 89.1739C266.125 89.1093 266.142 89.077 266.175 89.077C266.59 89.077 266.893 89.0501 267.084 88.9963C267.274 88.9424 267.403 88.8402 267.47 88.6894C267.538 88.5387 267.571 88.2965 267.571 87.9627V81.3578L260.844 89.4484C260.811 89.4807 260.727 89.4969 260.592 89.4969C260.379 89.4969 260.273 89.4592 260.273 89.3839V80.4857C260.273 80.1627 260.239 79.9259 260.172 79.7752C260.104 79.6244 259.981 79.5222 259.802 79.4683C259.622 79.4037 259.342 79.3714 258.961 79.3714C258.927 79.3714 258.91 79.3391 258.91 79.2745C258.91 79.2099 258.927 79.1776 258.961 79.1776L259.903 79.1938C260.463 79.2153 260.895 79.2261 261.197 79.2261C261.646 79.2261 262.15 79.2153 262.711 79.1938L263.535 79.1776C263.569 79.1776 263.586 79.2099 263.586 79.2745C263.586 79.3391 263.569 79.3714 263.535 79.3714C263.12 79.3714 262.818 79.4037 262.627 79.4683C262.436 79.5222 262.307 79.6244 262.24 79.7752C262.173 79.9259 262.139 80.1627 262.139 80.4857V87.1553L268.866 79.0646C268.9 79.0323 268.984 79.0161 269.119 79.0161C269.197 79.0161 269.27 79.0269 269.337 79.0484C269.404 79.07 269.438 79.0969 269.438 79.1292V87.9627C269.438 88.2857 269.472 88.5279 269.539 88.6894C269.606 88.8402 269.73 88.9424 269.909 88.9963C270.088 89.0501 270.369 89.077 270.75 89.077Z" fill="#7E7753"/>
<path d="M289.966 89.077C289.989 89.077 290 89.1093 290 89.1739C290 89.2385 289.989 89.2708 289.966 89.2708C289.563 89.2708 289.243 89.2654 289.008 89.2547L287.713 89.2385L286.452 89.2547C286.238 89.2654 285.947 89.2708 285.577 89.2708C285.543 89.2708 285.527 89.2385 285.527 89.1739C285.527 89.1093 285.543 89.077 285.577 89.077C285.936 89.077 286.194 89.0501 286.351 88.9963C286.519 88.9424 286.631 88.8402 286.687 88.6894C286.743 88.5387 286.771 88.2965 286.771 87.9627V84.087C286.356 84.1731 285.964 84.3938 285.594 84.7491C285.235 85.1043 284.809 85.7072 284.316 86.5578C283.744 87.5159 283.34 88.1727 283.105 88.5279C282.881 88.8832 282.724 89.0985 282.634 89.1739C282.544 89.2385 282.421 89.2708 282.264 89.2708H280.061C280.038 89.2708 280.027 89.2385 280.027 89.1739C280.027 89.1093 280.038 89.077 280.061 89.077C280.408 89.0663 280.689 88.9532 280.902 88.7379C281.115 88.5226 281.406 88.1081 281.776 87.4944L282.583 86.2348C283.032 85.5135 283.486 84.9967 283.946 84.6845C284.405 84.3615 284.949 84.1462 285.577 84.0385C284.489 83.9416 283.66 83.6832 283.088 83.2634C282.516 82.8435 282.23 82.2944 282.23 81.6161C282.23 81.1317 282.382 80.701 282.684 80.3242C282.998 79.9474 283.424 79.6567 283.963 79.4522C284.501 79.2369 285.106 79.1292 285.779 79.1292C286.025 79.1292 286.317 79.1453 286.653 79.1776C286.788 79.1884 286.945 79.1992 287.124 79.2099C287.304 79.2207 287.5 79.2261 287.713 79.2261C288.06 79.2261 288.492 79.2153 289.008 79.1938L289.966 79.1776C289.989 79.1776 290 79.2099 290 79.2745C290 79.3391 289.989 79.3714 289.966 79.3714C289.552 79.3714 289.254 79.4037 289.075 79.4683C288.896 79.5222 288.778 79.6244 288.722 79.7752C288.666 79.9151 288.638 80.152 288.638 80.4857V87.9627C288.638 88.2965 288.666 88.5387 288.722 88.6894C288.778 88.8402 288.896 88.9424 289.075 88.9963C289.254 89.0501 289.552 89.077 289.966 89.077ZM284.164 81.2124C284.164 81.9876 284.366 82.6012 284.77 83.0534C285.173 83.5056 285.762 83.7317 286.536 83.7317H286.771V80.518C286.771 79.7321 286.429 79.3391 285.745 79.3391C284.691 79.3391 284.164 79.9636 284.164 81.2124Z" fill="#7E7753"/>
<path d="M173.725 48.2574C170.174 48.2574 167.005 47.6093 164.217 46.3131C161.468 44.9868 159.33 43.2084 157.802 40.9778C156.313 38.717 155.568 36.2604 155.568 33.6078C155.568 30.503 156.561 27.8504 158.547 25.6499C160.532 23.4193 163.072 21.7464 166.165 20.6311C169.296 19.5158 172.484 18.9581 175.73 18.9581C179.358 18.9581 182.546 19.6364 185.295 20.9928C188.045 22.3191 190.145 24.0825 191.596 26.2829C193.085 28.4834 193.83 30.8195 193.83 33.2912C193.83 36.0343 192.913 38.5512 191.08 40.8421C189.247 43.133 186.785 44.9416 183.692 46.2679C180.637 47.5942 177.315 48.2574 173.725 48.2574ZM175.615 47.127C177.754 47.127 179.663 46.6447 181.343 45.6801C183.061 44.6854 184.398 43.2536 185.353 41.3847C186.307 39.4857 186.785 37.2249 186.785 34.6025C186.785 31.8293 186.25 29.3576 185.181 27.1872C184.112 24.9868 182.565 23.2686 180.541 22.0327C178.517 20.7969 176.15 20.1789 173.439 20.1789C169.964 20.1789 167.291 21.2189 165.42 23.2988C163.549 25.3485 162.613 28.2272 162.613 31.9348C162.613 34.8587 163.167 37.4812 164.274 39.8022C165.42 42.0931 166.967 43.8866 168.914 45.1828C170.9 46.4789 173.133 47.127 175.615 47.127Z" fill="#7E7753"/>
<path d="M234.933 47.0855C235.032 47.0855 235.081 47.1756 235.081 47.3559C235.081 47.5362 235.032 47.6264 234.933 47.6264C233.776 47.6264 232.85 47.6114 232.156 47.5813L228.34 47.5362L223.878 47.5813C223.283 47.6114 222.474 47.6264 221.449 47.6264C221.35 47.6264 221.3 47.5362 221.3 47.3559C221.3 47.1756 221.35 47.0855 221.449 47.0855C222.672 47.0855 223.564 47.0104 224.126 46.8601C224.688 46.7099 225.068 46.4244 225.266 46.0037C225.464 45.583 225.563 44.9068 225.563 43.9753V25.5393L205.735 48.1222C205.636 48.2124 205.388 48.2575 204.991 48.2575C204.363 48.2575 204.049 48.1523 204.049 47.9419V23.1052C204.049 22.2037 203.95 21.5426 203.752 21.1219C203.554 20.7011 203.19 20.4157 202.661 20.2654C202.133 20.0851 201.306 19.995 200.183 19.995C200.084 19.995 200.034 19.9048 200.034 19.7245C200.034 19.5442 200.084 19.4541 200.183 19.4541L202.959 19.4991C204.611 19.5592 205.884 19.5893 206.776 19.5893C208.098 19.5893 209.585 19.5592 211.237 19.4991L213.666 19.4541C213.765 19.4541 213.815 19.5442 213.815 19.7245C213.815 19.9048 213.765 19.995 213.666 19.995C212.444 19.995 211.551 20.0851 210.989 20.2654C210.428 20.4157 210.048 20.7011 209.849 21.1219C209.651 21.5426 209.552 22.2037 209.552 23.1052V41.7215L229.381 19.1385C229.48 19.0484 229.728 19.0033 230.124 19.0033C230.355 19.0033 230.57 19.0333 230.769 19.0934C230.967 19.1535 231.066 19.2287 231.066 19.3188V43.9753C231.066 44.8768 231.165 45.5529 231.363 46.0037C231.562 46.4244 231.925 46.7099 232.454 46.8601C232.983 47.0104 233.809 47.0855 234.933 47.0855Z" fill="#7E7753"/>
<rect x="143.159" width="2.41288" height="67.2159" fill="#7E7753"/>
<path fill-rule="evenodd" clip-rule="evenodd" d="M106.966 51.3597H108.517V52.9108H79.9072V51.3597H81.1137V19.9923L100.589 13.9601V19.9923L106.966 21.7158V51.3597ZM85.9394 22.7499H83.5265V24.4733H85.9394V22.7499ZM83.5265 25.8521H85.9394V27.5756H83.5265V25.8521ZM85.9394 28.9544H83.5265V30.6779H85.9394V28.9544ZM83.5265 32.0567H85.9394V33.7802H83.5265V32.0567ZM85.9394 35.1589H83.5265V36.8824H85.9394V35.1589ZM83.5265 38.2612H85.9394V39.9847H83.5265V38.2612ZM85.9394 41.3635H83.5265V43.087H85.9394V41.3635ZM83.5265 44.4658H85.9394V46.1893H83.5265V44.4658ZM85.9394 47.568H83.5265V49.2915H85.9394V47.568ZM87.6629 22.7499H90.0758V24.4733H87.6629V22.7499ZM90.0758 25.8521H87.6629V27.5756H90.0758V25.8521ZM87.6629 28.9544H90.0758V30.6779H87.6629V28.9544ZM90.0758 32.0567H87.6629V33.7802H90.0758V32.0567ZM87.6629 35.1589H90.0758V36.8824H87.6629V35.1589ZM90.0758 38.2612H87.6629V39.9847H90.0758V38.2612ZM87.6629 41.3635H90.0758V43.087H87.6629V41.3635ZM90.0758 44.4658H87.6629V46.1893H90.0758V44.4658ZM87.6629 47.568H90.0758V49.2915H87.6629V47.568ZM94.2122 22.7499H91.7993V24.4733H94.2122V22.7499ZM91.7993 25.8521H94.2122V27.5756H91.7993V25.8521ZM94.2122 28.9544H91.7993V30.6779H94.2122V28.9544ZM91.7993 32.0567H94.2122V33.7802H91.7993V32.0567ZM94.2122 35.1589H91.7993V36.8824H94.2122V35.1589ZM91.7993 38.2612H94.2122V39.9847H91.7993V38.2612ZM94.2122 41.3635H91.7993V43.087H94.2122V41.3635ZM91.7993 44.4658H94.2122V46.1893H91.7993V44.4658ZM94.2122 47.568H91.7993V49.2915H94.2122V47.568ZM95.9356 22.7499H98.3485V24.4733H95.9356V22.7499ZM98.3485 25.8521H95.9356V27.5756H98.3485V25.8521ZM95.9356 28.9544H98.3485V30.6779H95.9356V28.9544ZM98.3485 32.0567H95.9356V33.7802H98.3485V32.0567ZM95.9356 35.1589H98.3485V36.8824H95.9356V35.1589ZM98.3485 38.2612H95.9356V39.9847H98.3485V38.2612ZM95.9356 41.3635H98.3485V43.087H95.9356V41.3635ZM98.3485 44.4658H95.9356V46.1893H98.3485V44.4658ZM95.9356 47.568H98.3485V49.2915H95.9356V47.568ZM104.553 22.7499H102.14V24.4733H104.553V22.7499ZM102.14 25.8521H104.553V27.5756H102.14V25.8521ZM104.553 28.9544H102.14V30.6779H104.553V28.9544ZM102.14 32.0567H104.553V33.7802H102.14V32.0567ZM104.553 35.1589H102.14V36.8824H104.553V35.1589ZM102.14 38.2612H104.553V39.9847H102.14V38.2612ZM104.553 41.3635H102.14V43.087H104.553V41.3635ZM102.14 44.4658H104.553V46.1893H102.14V44.4658ZM104.553 47.568H102.14V49.2915H104.553V47.568Z" fill="#7E7753"/>
</svg>
