<svg width="11" height="10" viewBox="0 0 11 10" fill="none" xmlns="http://www.w3.org/2000/svg">
<path d="M11 7.89773C11 7.84801 11 7.79829 10.9766 7.74858C10.9219 7.59943 10.5391 7.44318 10.3828 7.37216C9.9375 7.14489 9.48437 6.92472 9.04688 6.69034C8.84375 6.5767 8.59375 6.36364 8.35156 6.36364C7.875 6.36364 7.17969 7.64915 6.75781 7.64915C6.54688 7.64915 6.27344 7.47159 6.08594 7.37216C4.66406 6.65483 3.67969 5.75994 2.89062 4.46733C2.78125 4.29687 2.58594 4.0483 2.58594 3.85653C2.58594 3.47301 4 2.84091 4 2.40767C4 2.1875 3.76562 1.96023 3.64062 1.77557C3.38281 1.37784 3.14062 0.965909 2.89062 0.56108C2.8125 0.419034 2.64062 0.0710228 2.47656 0.0213069C2.42188 0 2.36719 0 2.3125 0C2.03125 0 1.48438 0.113637 1.22656 0.220171C0.84375 0.369318 0.59375 0.767045 0.398438 1.08665C0.148437 1.50568 0 1.93182 0 2.40767C0 3.06818 0.296875 3.66477 0.539062 4.26847C0.710938 4.7017 0.921875 5.12074 1.1875 5.51136C2.00781 6.71875 3.60938 8.17472 4.9375 8.92045C5.36719 9.16193 5.82813 9.35369 6.30469 9.50994C6.96875 9.73011 7.625 10 8.35156 10C8.875 10 9.34375 9.86506 9.80469 9.63778C10.1562 9.46023 10.5938 9.23295 10.7578 8.88494C10.875 8.65057 11 8.15341 11 7.89773Z" fill="white"/>
</svg>
