<svg width="14" height="15" viewBox="0 0 14 15" fill="none" xmlns="http://www.w3.org/2000/svg">
<path d="M9.69231 6.34615C9.69231 8.57272 8.0012 10.3846 5.92308 10.3846C3.84495 10.3846 2.15385 8.57272 2.15385 6.34615C2.15385 4.11959 3.84495 2.30769 5.92308 2.30769C8.0012 2.30769 9.69231 4.11959 9.69231 6.34615ZM14 13.8462C14 13.5397 13.8822 13.2422 13.6887 13.0349L10.8029 9.94291C11.4844 8.88822 11.8462 7.6262 11.8462 6.34615C11.8462 2.83954 9.19591 0 5.92308 0C2.65024 0 0 2.83954 0 6.34615C0 9.85277 2.65024 12.6923 5.92308 12.6923C7.11779 12.6923 8.29567 12.3047 9.28005 11.5745L12.1659 14.6575C12.3594 14.8738 12.637 15 12.9231 15C13.512 15 14 14.4772 14 13.8462Z" fill="#7D4670"/>
</svg>
