<svg width="19" height="11" viewBox="0 0 19 11" fill="none" xmlns="http://www.w3.org/2000/svg">
<path d="M18.9732 0.795467C18.9732 0.795467 18.8347 0.393944 17.9741 0.504362L15.1251 0.524439C14.9075 0.494325 14.7492 0.584668 14.7492 0.584668C14.7492 0.584668 14.581 0.67501 14.5019 0.895848C14.037 2.11046 13.4434 3.15442 13.4434 3.15442C12.1772 5.34272 11.6628 5.46318 11.4551 5.32265C10.9703 5.01147 11.0989 4.05785 11.0989 3.37526C11.0989 1.24718 11.4155 0.363829 10.4757 0.132953C10.1691 0.0626863 9.94153 0.0124963 9.14025 0.00245855C8.12134 -0.00758031 7.26071 0.00245854 6.77598 0.243373C6.44954 0.403982 6.20223 0.765352 6.35061 0.785429C6.53857 0.815543 6.96394 0.905886 7.19146 1.21707C7.19146 1.21707 7.43877 1.62863 7.47834 2.53206C7.58715 5.03154 7.08265 5.34272 7.08265 5.34272C6.69685 5.55352 6.02417 5.20219 5.03493 3.13434C5.03493 3.13434 4.46118 2.11046 4.01602 0.986192C3.93688 0.775392 3.77861 0.664973 3.77861 0.664973C3.77861 0.664973 3.60054 0.524439 3.34334 0.484286L0.632844 0.504362C0.217366 0.504362 0.0689806 0.695086 0.0689806 0.695086C0.0689806 0.695086 -0.0794044 0.855696 0.0590883 1.18695C2.17605 6.23611 4.58978 8.76571 4.58978 8.76571C4.58978 8.76571 6.79577 11.1046 9.29853 10.944H10.4361C10.7824 10.9139 10.9604 10.7231 10.9604 10.7231C10.9604 10.7231 11.1187 10.5425 11.1088 10.2112C11.089 8.66533 11.8013 8.43445 11.8013 8.43445C12.4938 8.21362 13.3841 9.93013 14.3337 10.5926C14.3337 10.5926 15.0559 11.0945 15.5999 10.9841L18.1324 10.944C19.4678 10.9339 18.8347 9.80967 18.8347 9.80967C18.7853 9.71933 18.4687 9.0267 16.9453 7.59125C15.3625 6.09558 15.5703 6.33649 17.4894 3.74667C18.6567 2.17069 19.1216 1.20703 18.9732 0.795467Z" fill="white"/>
</svg>
